# xmcd
#
# Track frame offsets:
#  150
#  22439
#  98612
#  130431
#  186432
#  241508
#  263004
#  282445
#
# Disc length: 4712 seconds
#
# Revision: 0
# Processed by: cddbd v1.5.2PL0 Copyright (c) Steve Scherf et al.
# Submitted via: Collectorz.com_Music_Collector 6.11
#
DISCID=70126608
DTITLE=Eric Clapton - Beetle-Clasher (2CDs) [CD2)
DYEAR=1997
DGENRE=Blues
TTITLE0=Same Old Blues
TTITLE1=Tearing Us Apart
TTITLE2=Cocaine
TTITLE3=Layla
TTITLE4=Solid Rock
TTITLE5=Behind The Mask
TTITLE6=Sunshine Of Your Love
TTITLE7=Ending-SE
EXTD=
EXTT0=
EXTT1=
EXTT2=
EXTT3=
EXTT4=
EXTT5=
EXTT6=
EXTT7=
PLAYORDER=
